<?xml version="1.0" encoding="UTF-8" standalone="no"?>
<!-- Created with Inkscape (http://www.inkscape.org/) -->

<svg
   xmlns:dc="http://purl.org/dc/elements/1.1/"
   xmlns:cc="http://creativecommons.org/ns#"
   xmlns:rdf="http://www.w3.org/1999/02/22-rdf-syntax-ns#"
   xmlns:svg="http://www.w3.org/2000/svg"
   xmlns="http://www.w3.org/2000/svg"
   xmlns:sodipodi="http://sodipodi.sourceforge.net/DTD/sodipodi-0.dtd"
   xmlns:inkscape="http://www.inkscape.org/namespaces/inkscape"
   width="1298.0055"
   height="1114.6649"
   id="svg4020"
   version="1.1"
   inkscape:version="0.48.5 r10040"
   sodipodi:docname="New document 4">
  <defs
     id="defs4022" />
  <sodipodi:namedview
     id="base"
     pagecolor="#ffffff"
     bordercolor="#666666"
     borderopacity="1.0"
     inkscape:pageopacity="0.0"
     inkscape:pageshadow="2"
     inkscape:zoom="0.35"
     inkscape:cx="624.00275"
     inkscape:cy="683.04672"
     inkscape:document-units="px"
     inkscape:current-layer="layer1"
     showgrid="false"
     fit-margin-top="0"
     fit-margin-left="0"
     fit-margin-right="0"
     fit-margin-bottom="0"
     inkscape:window-width="1440"
     inkscape:window-height="897"
     inkscape:window-x="-8"
     inkscape:window-y="-8"
     inkscape:window-maximized="1" />
  <metadata
     id="metadata4025">
    <rdf:RDF>
      <cc:Work
         rdf:about="">
        <dc:format>image/svg+xml</dc:format>
        <dc:type
           rdf:resource="http://purl.org/dc/dcmitype/StillImage" />
        <dc:title></dc:title>
      </cc:Work>
    </rdf:RDF>
  </metadata>
  <g
     inkscape:label="Layer 1"
     inkscape:groupmode="layer"
     id="layer1"
     transform="translate(249.00275,-100.74402)">
    <path
       style="opacity:0.2;fill:#808080;fill-opacity:1;stroke:none;display:inline"
       d="m 1049.0027,923.31712 -474.7191,-822.22197 -234.48355,-0.005 c -154.0382,267.02847 -308.5863,533.7546 -462.8593,800.64917 l 48.7078,83.1172 446.44311,-773.26211 0.52345,-0.90665 24.33715,-42.15318 c 0,0 0.24387,-0.21988 0.71491,-0.19168 l 124.96601,0.23183 11.94378,0.24796 5.9249,10.67296 387.42909,670.89907 36.3346,62.6778 5.4717,10.4113 39.55875,67.5609 39.7067,-67.7274 z"
       id="path3972"
       inkscape:connector-curvature="0"
       inkscape:export-filename="C:\Users\cmjoy_000\Desktop\Websites\MSI Bootstrap\images\backgroundlogo.png"
       inkscape:export-xdpi="99.993874"
       inkscape:export-ydpi="99.993874" />
    <path
       style="opacity:0.2;fill:#808080;fill-opacity:1;stroke:none;display:inline"
       d="m 985.15045,1033.9125 -38.5822,-68.20568 -24.2232,-41.7851 -17.4616,-29.4208 -1.0287,-2.4052 -393.16255,-680.85705 -88.61127,-0.39442 438.83772,759.80587 14.6209,25.9671 2.126,3.64498 24.0314,41.0704 -54.5016,95.4461 -6.2104,9.7102 -11.7523,0.4671 -810.37,-0.1029 -35.9015,0.4245 -90.4944,-0.2732 38.3906,67.4908 948.9017,0.9137 105.3909,-181.4957 z"
       id="path3974"
       inkscape:connector-curvature="0"
       inkscape:export-filename="C:\Users\cmjoy_000\Desktop\Websites\MSI Bootstrap\images\backgroundlogo.png"
       inkscape:export-xdpi="99.993874"
       inkscape:export-ydpi="99.993874" />
    <path
       style="opacity:0.2;fill:#808080;fill-opacity:1;stroke:none;display:inline"
       d="m 862.15645,1028.1716 -4.2197,-0.019 -905.7988,-0.2034 -1.8842,0.1231 -48.49,-0.8002 -0.715,0.1917 -65.7677,-115.32728 -6.4483,-9.7665 6.2806,-10.8783 455.9342,-790.7477 -77.3825,0.0452 -462.6678,801.364 116.5314,203.25768 c 325.6258,-0.54 949.426,0.01 949.426,0.01 l 45.2021,-77.2459 z"
       id="path3976"
       inkscape:connector-curvature="0"
       inkscape:export-filename="C:\Users\cmjoy_000\Desktop\Websites\MSI Bootstrap\images\backgroundlogo.png"
       inkscape:export-xdpi="99.993874"
       inkscape:export-ydpi="99.993874" />
    <path
       inkscape:connector-curvature="0"
       style="opacity:0.2;fill:#223b80;fill-opacity:1;stroke:none;display:inline"
       d="M 800.50925,949.67112 418.88378,287.56151 418.6314,694.14141 c 10.14879,4.08376 19.32993,11.00161 25.22356,21.21061 5.16745,8.9505 7.08479,18.9311 6.4946,28.5279 l -0.26173,0.4533 350.42152,205.3378 z"
       id="path3978"
       inkscape:export-filename="C:\Users\cmjoy_000\Desktop\Websites\MSI Bootstrap\images\backgroundlogo.png"
       inkscape:export-xdpi="99.993874"
       inkscape:export-ydpi="99.993874" />
    <path
       inkscape:connector-curvature="0"
       style="opacity:0.2;fill:#223b80;fill-opacity:1;stroke:none;display:inline"
       d="M 779.12085,985.67032 430.32096,780.66412 c -1.77963,1.3731 -3.40652,2.9762 -5.4066,4.1308 -18.02958,10.4095 -39.62451,8.0789 -55.35912,-3.5574 l -353.93559,204.7981 763.5012,-0.3653 z"
       id="path3980"
       inkscape:export-filename="C:\Users\cmjoy_000\Desktop\Websites\MSI Bootstrap\images\backgroundlogo.png"
       inkscape:export-xdpi="99.993874"
       inkscape:export-ydpi="99.993874" />
    <path
       inkscape:connector-curvature="0"
       style="opacity:0.2;fill:#223b80;fill-opacity:1;stroke:none;display:inline"
       d="m 349.00945,744.59742 c -1.3504,-18.7663 7.7529,-37.6936 25.14118,-47.73277 0.87972,-0.50873 1.77272,-1.03258 2.66829,-1.48123 l 0.13087,-408.46295 -382.32904,662.21325 354.3888,-204.5363 z"
       id="path3982"
       inkscape:export-filename="C:\Users\cmjoy_000\Desktop\Websites\MSI Bootstrap\images\backgroundlogo.png"
       inkscape:export-xdpi="99.993874"
       inkscape:export-ydpi="99.993874" />
  </g>
</svg>
