<?xml version="1.0" encoding="UTF-8" standalone="no"?>
<!-- Created with Inkscape (http://www.inkscape.org/) -->

<svg
   xmlns:dc="http://purl.org/dc/elements/1.1/"
   xmlns:cc="http://creativecommons.org/ns#"
   xmlns:rdf="http://www.w3.org/1999/02/22-rdf-syntax-ns#"
   xmlns:svg="http://www.w3.org/2000/svg"
   xmlns="http://www.w3.org/2000/svg"
   xmlns:sodipodi="http://sodipodi.sourceforge.net/DTD/sodipodi-0.dtd"
   xmlns:inkscape="http://www.inkscape.org/namespaces/inkscape"
   width="114.68082"
   height="35.457115"
   id="svg3234"
   version="1.1"
   inkscape:version="0.48.5 r10040"
   sodipodi:docname="HeadLogo.svg">
  <defs
     id="defs3236" />
  <sodipodi:namedview
     id="base"
     pagecolor="#ffffff"
     bordercolor="#666666"
     borderopacity="1.0"
     inkscape:pageopacity="0.0"
     inkscape:pageshadow="2"
     inkscape:zoom="5.6"
     inkscape:cx="72.032065"
     inkscape:cy="8.5323101"
     inkscape:document-units="px"
     inkscape:current-layer="layer1"
     showgrid="false"
     fit-margin-top="0"
     fit-margin-left="0"
     fit-margin-right="0"
     fit-margin-bottom="0"
     inkscape:window-width="1440"
     inkscape:window-height="897"
     inkscape:window-x="-8"
     inkscape:window-y="-8"
     inkscape:window-maximized="1" />
  <metadata
     id="metadata3239">
    <rdf:RDF>
      <cc:Work
         rdf:about="">
        <dc:format>image/svg+xml</dc:format>
        <dc:type
           rdf:resource="http://purl.org/dc/dcmitype/StillImage" />
        <dc:title />
      </cc:Work>
    </rdf:RDF>
  </metadata>
  <g
     inkscape:label="Layer 1"
     inkscape:groupmode="layer"
     id="layer1"
     transform="translate(-205.51674,-597.49077)">
    <path
       inkscape:connector-curvature="0"
       id="path4072"
       style="font-size:35.34676743px;font-style:normal;font-variant:normal;font-weight:normal;font-stretch:normal;line-height:125%;letter-spacing:0px;word-spacing:0px;fill:#223b80;fill-opacity:1;stroke:none;font-family:Jomolhari;-inkscape-font-specification:Jomolhari"
       d="m 264.822,624.10443 -0.58682,0 -9.90676,-21.64299 0,15.84391 c 0,1.01254 0.0518,1.83523 0.15534,2.46806 0.10355,0.63284 0.2934,1.13336 0.56955,1.50155 0.27614,0.3682 0.65584,0.63284 1.1391,0.79392 0.48325,0.16109 1.10458,0.26464 1.86399,0.31067 l 0,0.72488 -9.25091,0 0,-0.72488 c 0.80543,-0.069 1.45552,-0.17835 1.95029,-0.32793 0.49476,-0.14958 0.87446,-0.40846 1.1391,-0.77666 0.26464,-0.36819 0.44298,-0.86871 0.53504,-1.50155 0.092,-0.63283 0.13807,-1.45552 0.13807,-2.46806 l 0,-15.98198 c 0,-0.71336 -0.0403,-1.28866 -0.12081,-1.72592 -0.0806,-0.43721 -0.25314,-0.78239 -0.51778,-1.03555 -0.26464,-0.25311 -0.63859,-0.43145 -1.12185,-0.53503 -0.48325,-0.10353 -1.1276,-0.17832 -1.93302,-0.22437 l 0,-0.79392 7.80114,0 9.07832,19.91707 8.76766,-19.91707 7.80114,0 0,0.79392 c -0.73643,0.0461 -1.32324,0.12659 -1.76044,0.24163 -0.43726,0.11508 -0.78244,0.29918 -1.03555,0.55229 -0.25316,0.25316 -0.42,0.59834 -0.50051,1.03555 -0.0806,0.43725 -0.12085,1.00105 -0.12082,1.6914 l 0,17.53531 c -3e-5,0.69037 0.046,1.25417 0.13808,1.69139 0.092,0.43724 0.25885,0.78242 0.50051,1.03555 0.2416,0.25314 0.58678,0.43724 1.03555,0.5523 0.44871,0.11506 1.02977,0.1956 1.74318,0.24163 l 0,0.72488 -11.04587,0 0,-0.72488 c 0.78239,-0.046 1.40948,-0.12657 1.88125,-0.24163 0.47173,-0.11506 0.83417,-0.31642 1.08733,-0.60407 0.25311,-0.28765 0.41995,-0.67886 0.50051,-1.17363 0.0805,-0.49476 0.12079,-1.15636 0.12082,-1.9848 l 0,-17.84598 z" />
    <path
       inkscape:connector-curvature="0"
       id="path4074"
       style="font-size:35.34676743px;font-style:normal;font-variant:normal;font-weight:normal;font-stretch:normal;line-height:125%;letter-spacing:0px;word-spacing:0px;fill:#223b80;fill-opacity:1;stroke:none;font-family:Jomolhari;-inkscape-font-specification:Jomolhari"
       d="m 301.86016,605.87875 -0.96651,0 c -0.1611,-0.57528 -0.31644,-1.08155 -0.466,-1.5188 -0.1496,-0.43721 -0.32219,-0.83417 -0.51777,-1.19088 -0.19562,-0.35667 -0.40849,-0.67884 -0.63859,-0.96652 -0.23014,-0.28763 -0.49478,-0.59254 -0.79392,-0.91473 -1.38075,-1.44975 -2.9916,-2.17463 -4.83257,-2.17466 -1.21966,3e-5 -2.20343,0.3222 -2.95132,0.96652 -0.7479,0.64436 -1.12185,1.51882 -1.12184,2.62339 -10e-6,1.08159 0.44873,2.09413 1.34621,3.03761 0.89747,0.94352 2.37025,1.97907 4.41835,3.10665 2.62338,1.42677 4.51613,2.81901 5.67826,4.17672 1.1621,1.35773 1.74316,2.84202 1.74318,4.45286 -2e-5,1.01255 -0.20713,1.95605 -0.62133,2.83051 -0.41424,0.87446 -0.97804,1.63386 -1.6914,2.2782 -0.71339,0.64435 -1.56485,1.15062 -2.55436,1.51881 -0.98953,0.3682 -2.0481,0.55229 -3.17568,0.55229 -0.80544,0 -1.59936,-0.069 -2.38177,-0.20711 -0.78242,-0.13807 -1.54182,-0.36819 -2.27821,-0.69036 -0.39121,-0.13807 -0.7479,-0.24738 -1.07006,-0.32793 -0.32218,-0.0805 -0.58682,-0.12081 -0.79393,-0.12081 -0.29916,0 -0.55229,0.12657 -0.7594,0.3797 -0.20711,0.25314 -0.32217,0.5638 -0.34518,0.932 l -0.86296,0 -1.17362,-8.35344 0.89747,0 c 0.98952,2.41629 2.11712,4.18248 3.3828,5.29856 1.26566,1.1161 2.79597,1.67414 4.59094,1.67414 1.44975,0 2.61762,-0.40271 3.50361,-1.20814 0.88595,-0.80542 1.32894,-1.86398 1.32895,-3.17568 -1e-5,-0.50627 -0.0518,-0.95501 -0.15533,-1.34622 -0.10357,-0.3912 -0.2474,-0.72488 -0.43148,-1.00103 -0.46026,-0.73638 -1.1909,-1.49579 -2.19191,-2.27821 -1.00105,-0.78241 -2.20343,-1.56482 -3.60717,-2.34725 -1.10459,-0.57529 -2.04809,-1.15059 -2.8305,-1.72591 -0.78242,-0.57529 -1.42101,-1.17361 -1.91577,-1.79496 -0.49476,-0.62131 -0.85721,-1.26565 -1.08733,-1.93302 -0.23012,-0.66734 -0.34518,-1.39222 -0.34518,-2.17466 0,-2.18614 0.7594,-3.88904 2.27821,-5.10871 0.64434,-0.52926 1.35772,-0.93772 2.14014,-1.2254 0.7824,-0.28763 1.55331,-0.43145 2.31273,-0.43148 0.69035,3e-5 1.38647,0.0748 2.08835,0.22437 0.70186,0.14961 1.421,0.36247 2.1574,0.63859 0.36818,0.16111 0.70186,0.27617 1.00103,0.34518 0.29914,0.0691 0.55228,0.10358 0.7594,0.10356 0.64433,2e-5 1.05855,-0.43721 1.24266,-1.3117 l 0.82844,0 z" />
    <path
       inkscape:connector-curvature="0"
       id="path4076"
       style="font-size:35.34676743px;font-style:normal;font-variant:normal;font-weight:normal;font-stretch:normal;line-height:125%;letter-spacing:0px;word-spacing:0px;fill:#223b80;fill-opacity:1;stroke:none;font-family:Jomolhari;-inkscape-font-specification:Jomolhari"
       d="m 309.86841,602.32337 c 0,-0.73637 -0.0403,-1.32318 -0.12081,-1.76044 -0.0805,-0.43721 -0.25889,-0.78239 -0.53504,-1.03555 -0.27615,-0.25311 -0.66735,-0.4257 -1.17362,-0.51777 -0.50627,-0.092 -1.17362,-0.16106 -2.00206,-0.20711 l 0,-0.79392 11.70171,0 0,0.79392 c -0.82845,0.023 -1.4958,0.0863 -2.00206,0.18985 -0.50628,0.10358 -0.89749,0.28192 -1.17362,0.53503 -0.27616,0.25316 -0.46026,0.6041 -0.5523,1.05281 -0.0921,0.44876 -0.13808,1.02982 -0.13807,1.74318 l 0,17.53531 c -1e-5,0.71338 0.0518,1.29444 0.15533,1.74317 0.10355,0.44874 0.2934,0.79968 0.56955,1.05281 0.27614,0.25314 0.66735,0.43148 1.17363,0.53504 0.50625,0.10355 1.1621,0.16683 1.96754,0.18985 l 0,0.72488 -11.70171,0 0,-0.72488 c 0.82844,-0.023 1.49579,-0.0863 2.00206,-0.18985 0.50627,-0.10356 0.89172,-0.2819 1.15637,-0.53504 0.26463,-0.25313 0.44298,-0.59831 0.53503,-1.03555 0.092,-0.43723 0.13807,-1.02404 0.13807,-1.76043 z" />
    <path
       inkscape:connector-curvature="0"
       id="path4082"
       style="font-size:5.93357801px;font-style:normal;font-variant:normal;font-weight:normal;font-stretch:normal;line-height:125%;letter-spacing:0px;word-spacing:0px;fill:#223b80;fill-opacity:1;stroke:none;font-family:Jomolhari;-inkscape-font-specification:Jomolhari"
       d="m 249.03517,631.50507 -0.0985,0 -1.66303,-3.63316 0,2.65968 c 0,0.16997 0.009,0.30807 0.0261,0.41431 0.0174,0.10623 0.0493,0.19025 0.0956,0.25206 0.0463,0.0618 0.11009,0.10623 0.19121,0.13327 0.0811,0.027 0.18543,0.0444 0.31291,0.0521 l 0,0.12169 -1.55293,0 0,-0.12169 c 0.1352,-0.0116 0.24433,-0.0299 0.32739,-0.055 0.083,-0.0251 0.14679,-0.0686 0.19122,-0.13037 0.0444,-0.0618 0.0744,-0.14583 0.0898,-0.25206 0.0155,-0.10624 0.0232,-0.24434 0.0232,-0.41431 l 0,-2.68286 c 0,-0.11975 -0.007,-0.21632 -0.0203,-0.28973 -0.0135,-0.0734 -0.0425,-0.13133 -0.0869,-0.17383 -0.0444,-0.0425 -0.1072,-0.0724 -0.18832,-0.0898 -0.0811,-0.0174 -0.18929,-0.0299 -0.32449,-0.0377 l 0,-0.13327 1.30956,0 1.52395,3.34343 1.47181,-3.34343 1.30956,0 0,0.13327 c -0.12362,0.008 -0.22213,0.0213 -0.29552,0.0406 -0.0734,0.0193 -0.13135,0.0502 -0.17384,0.0927 -0.0425,0.0425 -0.0705,0.10045 -0.084,0.17384 -0.0135,0.0734 -0.0203,0.16804 -0.0203,0.28393 l 0,2.94361 c 0,0.11589 0.008,0.21054 0.0232,0.28393 0.0155,0.0734 0.0435,0.13134 0.084,0.17384 0.0406,0.0425 0.0985,0.0734 0.17384,0.0927 0.0753,0.0193 0.17286,0.0328 0.29262,0.0406 l 0,0.12169 -1.85424,0 0,-0.12169 c 0.13133,-0.008 0.2366,-0.0213 0.3158,-0.0406 0.0792,-0.0193 0.14003,-0.0531 0.18252,-0.1014 0.0425,-0.0483 0.0705,-0.11396 0.084,-0.19702 0.0135,-0.083 0.0203,-0.19411 0.0203,-0.33318 l 0,-2.99576 z" />
    <path
       inkscape:connector-curvature="0"
       id="path4084"
       style="font-size:5.93357801px;font-style:normal;font-variant:normal;font-weight:normal;font-stretch:normal;line-height:125%;letter-spacing:0px;word-spacing:0px;fill:#223b80;fill-opacity:1;stroke:none;font-family:Jomolhari;-inkscape-font-specification:Jomolhari"
       d="m 254.95716,630.46785 c -0.13907,0.36312 -0.32739,0.6374 -0.56496,0.82282 -0.23758,0.18542 -0.51668,0.27814 -0.83731,0.27814 -0.18929,0 -0.36023,-0.0348 -0.51281,-0.10431 -0.15259,-0.0695 -0.28297,-0.16804 -0.39113,-0.29552 -0.10817,-0.12747 -0.19122,-0.28199 -0.24917,-0.46356 -0.0579,-0.18156 -0.0869,-0.3863 -0.0869,-0.61421 0,-0.24337 0.0338,-0.46549 0.10141,-0.66637 0.0676,-0.20088 0.16224,-0.37375 0.28393,-0.51861 0.12168,-0.14486 0.26751,-0.25785 0.43748,-0.33898 0.16998,-0.0811 0.35733,-0.12168 0.56207,-0.12169 0.17384,10e-6 0.33318,0.0328 0.47805,0.0985 0.14486,0.0657 0.26751,0.15839 0.36795,0.27814 0.0425,0.0541 0.0782,0.10816 0.1072,0.16224 0.029,0.0541 0.0541,0.11397 0.0753,0.17963 0.0212,0.0657 0.0396,0.13907 0.055,0.2202 0.0154,0.0811 0.0309,0.17383 0.0463,0.27813 l -2.03387,0 c 0.008,0.21247 0.0261,0.38727 0.0551,0.5244 0.029,0.13714 0.0763,0.26945 0.14196,0.39693 0.18929,0.3554 0.46742,0.53309 0.83441,0.53309 0.21246,0 0.39692,-0.0522 0.55338,-0.15645 0.15645,-0.1043 0.31386,-0.282 0.47225,-0.53309 z m -0.79964,-1.02563 c -0.0425,-0.28586 -0.11107,-0.48384 -0.20571,-0.59394 -0.0946,-0.11009 -0.2424,-0.16514 -0.44328,-0.16514 -0.20474,0 -0.36409,0.0599 -0.47804,0.17963 -0.11396,0.11976 -0.18833,0.31291 -0.22309,0.57945 z" />
    <path
       inkscape:connector-curvature="0"
       id="path4086"
       style="font-size:5.93357801px;font-style:normal;font-variant:normal;font-weight:normal;font-stretch:normal;line-height:125%;letter-spacing:0px;word-spacing:0px;fill:#223b80;fill-opacity:1;stroke:none;font-family:Jomolhari;-inkscape-font-specification:Jomolhari"
       d="m 256.78243,628.73529 -0.67216,0 0,1.9006 c 0,0.21247 0.027,0.36409 0.0811,0.45487 0.0541,0.0908 0.141,0.13617 0.26075,0.13617 0.0773,0 0.14487,-0.0164 0.20281,-0.0493 0.058,-0.0328 0.12555,-0.0937 0.20281,-0.18253 l 0.0811,0.0811 c -0.2086,0.32836 -0.47515,0.49254 -0.79964,0.49254 -0.39016,0 -0.58525,-0.28007 -0.58525,-0.84021 l 0,-1.99331 -0.34767,0 c -0.0155,-0.004 -0.0232,-0.0174 -0.0232,-0.0406 0,-0.0386 0.0367,-0.0811 0.11009,-0.12748 0.17384,-0.10044 0.38823,-0.33608 0.64319,-0.70693 0.0193,-0.0309 0.0415,-0.0608 0.0666,-0.0898 0.0251,-0.029 0.0473,-0.0608 0.0666,-0.0956 0.0154,10e-6 0.0261,0.006 0.0319,0.0174 0.006,0.0116 0.009,0.0348 0.009,0.0695 l 0,0.76488 0.67216,0 z" />
    <path
       inkscape:connector-curvature="0"
       id="path4088"
       style="font-size:5.93357801px;font-style:normal;font-variant:normal;font-weight:normal;font-stretch:normal;line-height:125%;letter-spacing:0px;word-spacing:0px;fill:#223b80;fill-opacity:1;stroke:none;font-family:Jomolhari;-inkscape-font-specification:Jomolhari"
       d="m 259.37258,630.80972 c -1e-5,0.1468 0.0135,0.2482 0.0406,0.30422 0.027,0.056 0.0792,0.084 0.15645,0.084 0.0888,0 0.18542,-0.0406 0.28973,-0.12169 l 0,0.16804 c -0.11203,0.12362 -0.21054,0.20861 -0.29552,0.25496 -0.085,0.0464 -0.1835,0.0695 -0.29552,0.0695 -0.13521,0 -0.23468,-0.0377 -0.29842,-0.113 -0.0637,-0.0753 -0.10334,-0.20184 -0.11879,-0.37954 -0.20088,0.17384 -0.37664,0.29939 -0.5273,0.37665 -0.15066,0.0773 -0.29745,0.11589 -0.44038,0.11589 -0.20861,0 -0.37761,-0.0657 -0.50702,-0.19702 -0.12941,-0.13134 -0.19412,-0.30131 -0.19412,-0.50991 0,-0.10431 0.0203,-0.20957 0.0608,-0.31581 0.0406,-0.10623 0.0995,-0.19218 0.17674,-0.25785 0.0695,-0.0618 0.13424,-0.11492 0.19411,-0.15935 0.0599,-0.0444 0.1381,-0.0908 0.23468,-0.13907 0.0966,-0.0483 0.22212,-0.10333 0.37664,-0.16514 0.15452,-0.0618 0.35926,-0.14486 0.61422,-0.24917 l 0,-0.423 c 0,-0.18155 -0.0435,-0.31869 -0.13037,-0.41141 -0.0869,-0.0927 -0.21151,-0.13906 -0.37375,-0.13906 -0.13521,0 -0.2482,0.0319 -0.33898,0.0956 -0.0908,0.0637 -0.13617,0.14003 -0.13617,0.22888 0,0.0348 0.005,0.0792 0.0145,0.13327 0.01,0.0541 0.0145,0.0985 0.0145,0.13328 0,0.0773 -0.0299,0.14293 -0.0898,0.19701 -0.0599,0.0541 -0.12845,0.0811 -0.20571,0.0811 -0.0773,10e-6 -0.1439,-0.028 -0.19991,-0.084 -0.056,-0.056 -0.084,-0.12265 -0.084,-0.19991 0,-0.085 0.0241,-0.1719 0.0724,-0.26075 0.0483,-0.0888 0.11493,-0.16804 0.19991,-0.23758 0.0889,-0.0773 0.20764,-0.13713 0.35637,-0.17963 0.14872,-0.0425 0.31,-0.0637 0.48384,-0.0637 0.20087,1e-5 0.36988,0.0338 0.50702,0.10141 0.13713,0.0676 0.2424,0.16128 0.3158,0.28103 0.0464,0.0773 0.0792,0.16708 0.0985,0.26945 0.0193,0.10237 0.029,0.24047 0.029,0.4143 z m -0.5331,-1.07198 c -0.20088,0.0734 -0.37181,0.1439 -0.51281,0.2115 -0.141,0.0676 -0.25496,0.13714 -0.34188,0.2086 -0.0869,0.0715 -0.14969,0.14776 -0.18832,0.22889 -0.0386,0.0811 -0.058,0.16997 -0.0579,0.26654 l 0,0.029 c -10e-6,0.0695 0.0116,0.13617 0.0348,0.19991 0.0232,0.0637 0.0551,0.11878 0.0956,0.16514 0.0406,0.0464 0.0879,0.0831 0.14197,0.1101 0.0541,0.027 0.11009,0.0406 0.16804,0.0406 0.0695,0 0.14776,-0.0145 0.23468,-0.0435 0.0869,-0.029 0.169,-0.0647 0.24626,-0.1072 0.0773,-0.0425 0.12651,-0.0869 0.14776,-0.13327 0.0213,-0.0464 0.0319,-0.11976 0.0319,-0.2202 z" />
    <path
       inkscape:connector-curvature="0"
       id="path4090"
       style="font-size:5.93357801px;font-style:normal;font-variant:normal;font-weight:normal;font-stretch:normal;line-height:125%;letter-spacing:0px;word-spacing:0px;fill:#223b80;fill-opacity:1;stroke:none;font-family:Jomolhari;-inkscape-font-specification:Jomolhari"
       d="m 260.00418,627.27507 c 0.11589,-0.027 0.21922,-0.0512 0.31,-0.0724 0.0908,-0.0212 0.1777,-0.0435 0.26076,-0.0666 0.083,-0.0232 0.16321,-0.0464 0.24047,-0.0695 0.0773,-0.0232 0.15838,-0.0502 0.24337,-0.0811 l 0.029,0.0174 0,3.94606 c 0,0.0927 0.006,0.16708 0.0174,0.22309 0.0116,0.056 0.0348,0.10044 0.0695,0.13328 0.0348,0.0328 0.084,0.057 0.14776,0.0724 0.0637,0.0154 0.14776,0.027 0.25206,0.0348 l 0,0.0927 -1.55293,0 0,-0.0927 c 0.1043,-0.0116 0.18929,-0.0261 0.25496,-0.0435 0.0657,-0.0174 0.11782,-0.0444 0.15645,-0.0811 0.0386,-0.0367 0.0647,-0.084 0.0782,-0.14196 0.0135,-0.058 0.0203,-0.13135 0.0203,-0.2202 l 0,-3.15221 c 0,-0.15451 -0.0203,-0.25978 -0.0608,-0.3158 -0.0406,-0.056 -0.113,-0.084 -0.2173,-0.084 -0.0309,0 -0.0647,9.7e-4 -0.1014,0.003 -0.0367,0.002 -0.0724,0.005 -0.1072,0.009 l -0.0406,0 z" />
    <path
       inkscape:connector-curvature="0"
       id="path4092"
       style="font-size:5.93357801px;font-style:normal;font-variant:normal;font-weight:normal;font-stretch:normal;line-height:125%;letter-spacing:0px;word-spacing:0px;fill:#223b80;fill-opacity:1;stroke:none;font-family:Jomolhari;-inkscape-font-specification:Jomolhari"
       d="m 261.84683,627.27507 c 0.11589,-0.027 0.21923,-0.0512 0.31001,-0.0724 0.0908,-0.0212 0.1777,-0.0435 0.26075,-0.0666 0.0831,-0.0232 0.16321,-0.0464 0.24047,-0.0695 0.0773,-0.0232 0.15839,-0.0502 0.24337,-0.0811 l 0.029,0.0174 0,3.94606 c 0,0.0927 0.006,0.16708 0.0174,0.22309 0.0116,0.056 0.0348,0.10044 0.0695,0.13328 0.0348,0.0328 0.084,0.057 0.14776,0.0724 0.0637,0.0154 0.14776,0.027 0.25207,0.0348 l 0,0.0927 -1.55293,0 0,-0.0927 c 0.1043,-0.0116 0.18928,-0.0261 0.25495,-0.0435 0.0657,-0.0174 0.11783,-0.0444 0.15646,-0.0811 0.0386,-0.0367 0.0647,-0.084 0.0782,-0.14196 0.0135,-0.058 0.0203,-0.13135 0.0203,-0.2202 l 0,-3.15221 c 0,-0.15451 -0.0203,-0.25978 -0.0608,-0.3158 -0.0406,-0.056 -0.11299,-0.084 -0.21729,-0.084 -0.0309,0 -0.0647,9.7e-4 -0.10141,0.003 -0.0367,0.002 -0.0724,0.005 -0.1072,0.009 l -0.0406,0 z" />
    <path
       inkscape:connector-curvature="0"
       id="path4094"
       style="font-size:5.93357801px;font-style:normal;font-variant:normal;font-weight:normal;font-stretch:normal;line-height:125%;letter-spacing:0px;word-spacing:0px;fill:#223b80;fill-opacity:1;stroke:none;font-family:Jomolhari;-inkscape-font-specification:Jomolhari"
       d="m 266.7374,631.27329 c -0.16998,0.0425 -0.32256,0.085 -0.45777,0.12747 -0.1352,0.0425 -0.28779,0.0966 -0.45776,0.16225 l -0.0174,-0.0116 0,-0.55048 -0.28972,0.28393 c -0.0889,0.0927 -0.19315,0.16322 -0.31291,0.2115 -0.11975,0.0483 -0.24144,0.0724 -0.36505,0.0724 -0.24337,0 -0.43749,-0.0773 -0.58235,-0.23178 -0.14486,-0.15452 -0.21729,-0.36313 -0.21729,-0.62581 l 0,-1.65723 c 0,-0.15452 -0.028,-0.26075 -0.084,-0.3187 -0.056,-0.0579 -0.16515,-0.0927 -0.32739,-0.1043 l 0,-0.11589 0.96189,0 0,2.17294 c 0,0.13907 0.0463,0.25786 0.13906,0.35636 0.0927,0.0985 0.20474,0.14776 0.33609,0.14776 0.10043,0 0.20184,-0.0203 0.30421,-0.0608 0.10237,-0.0406 0.19797,-0.1014 0.28683,-0.18253 0.0425,-0.0309 0.0734,-0.0724 0.0927,-0.12458 0.0193,-0.0521 0.029,-0.12265 0.029,-0.2115 l 0,-1.56452 c 0,-0.0811 -0.007,-0.14775 -0.0203,-0.19991 -0.0135,-0.0521 -0.0386,-0.0937 -0.0753,-0.12458 -0.0367,-0.0309 -0.0879,-0.0531 -0.15355,-0.0666 -0.0657,-0.0135 -0.14873,-0.0222 -0.24917,-0.0261 l 0,-0.11589 1.04881,0 0,2.28304 c 0,0.15452 0.0251,0.25592 0.0753,0.30421 0.0502,0.0483 0.15065,0.0724 0.30131,0.0724 l 0.0348,0 z" />
    <path
       inkscape:connector-curvature="0"
       id="path4096"
       style="font-size:5.93357801px;font-style:normal;font-variant:normal;font-weight:normal;font-stretch:normal;line-height:125%;letter-spacing:0px;word-spacing:0px;fill:#223b80;fill-opacity:1;stroke:none;font-family:Jomolhari;-inkscape-font-specification:Jomolhari"
       d="m 266.94021,628.828 c 0.0966,-0.0348 0.18542,-0.0666 0.26654,-0.0956 0.0811,-0.029 0.15935,-0.0579 0.23468,-0.0869 0.0753,-0.029 0.15066,-0.058 0.22599,-0.0869 0.0753,-0.029 0.15741,-0.0608 0.24626,-0.0956 l 0.0406,0.0116 0,0.60842 c 0.0811,-0.11975 0.15451,-0.21922 0.22019,-0.29842 0.0657,-0.0792 0.12941,-0.14292 0.19122,-0.19122 0.0618,-0.0483 0.12264,-0.0821 0.18252,-0.1014 0.0599,-0.0193 0.12458,-0.029 0.19412,-0.029 0.11202,0 0.20087,0.0319 0.26655,0.0956 0.0657,0.0637 0.0985,0.14776 0.0985,0.25206 0,0.0966 -0.0232,0.17094 -0.0695,0.22309 -0.0464,0.0521 -0.10817,0.0782 -0.18543,0.0782 -0.0425,10e-6 -0.084,-0.009 -0.12458,-0.0261 -0.0406,-0.0174 -0.0879,-0.0531 -0.14196,-0.1072 -0.0348,-0.0309 -0.0676,-0.0541 -0.0985,-0.0695 -0.0309,-0.0154 -0.056,-0.0232 -0.0753,-0.0232 -0.0464,0 -0.0956,0.0184 -0.14776,0.0551 -0.0521,0.0367 -0.1014,0.0821 -0.14776,0.13617 -0.0464,0.0541 -0.085,0.11203 -0.11589,0.17383 -0.0309,0.0618 -0.0464,0.11976 -0.0464,0.17384 l 0,1.48919 c -10e-6,0.0927 0.008,0.16997 0.0232,0.23178 0.0154,0.0618 0.0444,0.11106 0.0869,0.14776 0.0425,0.0367 0.10044,0.0647 0.17384,0.084 0.0734,0.0193 0.1661,0.0309 0.27813,0.0348 l 0,0.0927 -1.59349,0 0,-0.0927 c 0.1043,-0.0193 0.18832,-0.0396 0.25206,-0.0608 0.0637,-0.0212 0.11203,-0.0473 0.14487,-0.0782 0.0328,-0.0309 0.0541,-0.0724 0.0637,-0.12459 0.01,-0.0521 0.0145,-0.11878 0.0145,-0.19991 l 0,-1.65143 c 0,-0.14679 -0.0174,-0.25013 -0.0521,-0.31001 -0.0348,-0.0599 -0.0927,-0.0898 -0.17383,-0.0898 -0.0425,0 -0.0802,0.002 -0.113,0.006 -0.0328,0.004 -0.0724,0.0116 -0.11878,0.0232 z" />
    <path
       inkscape:connector-curvature="0"
       id="path4098"
       style="font-size:5.93357801px;font-style:normal;font-variant:normal;font-weight:normal;font-stretch:normal;line-height:125%;letter-spacing:0px;word-spacing:0px;fill:#223b80;fill-opacity:1;stroke:none;font-family:Jomolhari;-inkscape-font-specification:Jomolhari"
       d="m 271.66853,628.9323 c 0.0425,0.11203 0.0724,0.20957 0.0898,0.29263 0.0174,0.0831 0.0261,0.1748 0.0261,0.27524 -10e-6,0.13907 -0.0271,0.27041 -0.0811,0.39402 -0.0541,0.12362 -0.12748,0.23275 -0.22019,0.32739 -0.0927,0.0947 -0.20088,0.16998 -0.32449,0.22599 -0.12362,0.056 -0.25689,0.084 -0.39982,0.084 -0.0193,0 -0.0512,-0.002 -0.0956,-0.006 -0.0444,-0.004 -0.0956,-0.01 -0.15356,-0.0174 l -0.12747,-0.0174 c -0.0464,0.0116 -0.0927,0.0338 -0.13907,0.0666 -0.0464,0.0328 -0.0889,0.0695 -0.12748,0.1101 -0.0386,0.0406 -0.0705,0.0821 -0.0956,0.12458 -0.0251,0.0425 -0.0377,0.0811 -0.0377,0.11589 0,0.0502 0.0415,0.0898 0.12459,0.11879 0.083,0.029 0.21536,0.0473 0.39692,0.0551 l 0.85179,0.0406 c 0.24337,0.0116 0.43652,0.0802 0.57945,0.2057 0.14293,0.12555 0.2144,0.29069 0.2144,0.49543 0,0.19315 -0.058,0.36023 -0.17383,0.50123 -0.1159,0.141 -0.26076,0.25785 -0.43459,0.35057 -0.17384,0.0927 -0.36023,0.16128 -0.55917,0.2057 -0.19895,0.0444 -0.38148,0.0666 -0.54758,0.0666 -0.15839,0 -0.30711,-0.0164 -0.44618,-0.0493 -0.13907,-0.0328 -0.26075,-0.0782 -0.36506,-0.13618 -0.1043,-0.0579 -0.18639,-0.12554 -0.24626,-0.2028 -0.0599,-0.0773 -0.0898,-0.16032 -0.0898,-0.24917 0,-0.12361 0.0493,-0.24723 0.14776,-0.37085 0.0985,-0.12361 0.26752,-0.27041 0.50702,-0.44038 -0.13907,-0.0657 -0.23274,-0.12265 -0.28103,-0.17094 -0.0483,-0.0483 -0.0724,-0.10913 -0.0724,-0.18252 0,-0.0657 0.0241,-0.13231 0.0724,-0.19991 0.0483,-0.0676 0.12651,-0.15163 0.23468,-0.25207 l 0.28393,-0.26654 c -0.22406,-0.10817 -0.38341,-0.23082 -0.47805,-0.36795 -0.0946,-0.13714 -0.14197,-0.31001 -0.14197,-0.51861 0,-0.15066 0.029,-0.29262 0.0869,-0.4259 0.058,-0.13327 0.13617,-0.24916 0.23468,-0.34767 0.0985,-0.0985 0.21536,-0.17673 0.35057,-0.23468 0.1352,-0.0579 0.27813,-0.0869 0.42879,-0.0869 0.1777,10e-6 0.3554,0.0328 0.5331,0.0985 l 0.15065,0.058 c 0.0657,0.0232 0.12652,0.0435 0.18253,0.0608 0.056,0.0174 0.11685,0.0261 0.18253,0.0261 l 0.50991,0 0,0.24337 z m -1.5877,2.59015 c -0.0657,0.0773 -0.11975,0.14293 -0.16225,0.19701 -0.0425,0.0541 -0.0753,0.10237 -0.0985,0.14487 -0.0232,0.0425 -0.0396,0.0811 -0.0493,0.11589 -0.01,0.0348 -0.0145,0.0715 -0.0145,0.11009 0,0.14679 0.0859,0.26365 0.25785,0.35057 0.17191,0.0869 0.40465,0.13037 0.69824,0.13038 0.18929,-1e-5 0.36119,-0.0155 0.51571,-0.0464 0.15452,-0.0309 0.28683,-0.0744 0.39693,-0.13038 0.11009,-0.056 0.19508,-0.12361 0.25496,-0.2028 0.0599,-0.0792 0.0898,-0.16708 0.0898,-0.26365 0,-0.11976 -0.0618,-0.20281 -0.18542,-0.24917 -0.12362,-0.0463 -0.33416,-0.0695 -0.6316,-0.0695 -0.0811,0 -0.17288,-0.003 -0.27524,-0.009 -0.10238,-0.006 -0.20281,-0.0126 -0.30132,-0.0203 -0.0985,-0.008 -0.19122,-0.0164 -0.27814,-0.0261 -0.0869,-0.01 -0.15935,-0.0203 -0.21729,-0.0319 z m 0.029,-2.23089 c 0,0.15839 0.0164,0.30422 0.0493,0.43749 0.0328,0.13327 0.0792,0.24723 0.13906,0.34187 0.0599,0.0947 0.13135,0.16805 0.2144,0.2202 0.0831,0.0521 0.17673,0.0782 0.28104,0.0782 0.14679,0 0.26461,-0.055 0.35346,-0.16514 0.0888,-0.1101 0.13327,-0.25786 0.13327,-0.44328 0,-0.1352 -0.0164,-0.27234 -0.0492,-0.41141 -0.0328,-0.13907 -0.0802,-0.26655 -0.14196,-0.38244 -0.0541,-0.1043 -0.12362,-0.18639 -0.20861,-0.24627 -0.085,-0.0599 -0.1777,-0.0898 -0.27813,-0.0898 -0.15452,0 -0.27524,0.058 -0.36216,0.17383 -0.0869,0.1159 -0.13038,0.27042 -0.13038,0.46357 z" />
    <path
       inkscape:connector-curvature="0"
       id="path4100"
       style="font-size:5.93357801px;font-style:normal;font-variant:normal;font-weight:normal;font-stretch:normal;line-height:125%;letter-spacing:0px;word-spacing:0px;fill:#223b80;fill-opacity:1;stroke:none;font-family:Jomolhari;-inkscape-font-specification:Jomolhari"
       d="m 273.5923,628.48033 0,2.35257 c 0,0.11976 0.005,0.21537 0.0145,0.28683 0.01,0.0715 0.0319,0.12748 0.0666,0.16804 0.0348,0.0406 0.084,0.0686 0.14776,0.084 0.0637,0.0154 0.15162,0.029 0.26365,0.0406 l 0,0.0927 -1.57032,0 0,-0.0927 c 0.11589,-0.008 0.20764,-0.0203 0.27524,-0.0377 0.0676,-0.0174 0.11976,-0.0464 0.15646,-0.0869 0.0367,-0.0406 0.0608,-0.0966 0.0724,-0.16804 0.0116,-0.0715 0.0174,-0.16707 0.0174,-0.28683 l 0,-1.53554 c 0,-0.14679 -0.0164,-0.25013 -0.0492,-0.31001 -0.0328,-0.0599 -0.0879,-0.0898 -0.16515,-0.0898 -0.0309,0 -0.0666,0.002 -0.1072,0.006 -0.0406,0.004 -0.0821,0.01 -0.12458,0.0174 l -0.0464,0.006 0,-0.0985 1.01983,-0.36505 z m -0.33028,-1.49498 c 0.0927,0 0.1719,0.0338 0.23757,0.1014 0.0657,0.0676 0.0985,0.14777 0.0985,0.24047 0,0.0966 -0.0319,0.17674 -0.0956,0.24048 -0.0637,0.0637 -0.14583,0.0956 -0.24627,0.0956 -0.0966,0 -0.17577,-0.0319 -0.23757,-0.0956 -0.0618,-0.0637 -0.0927,-0.1439 -0.0927,-0.24048 0,-0.0927 0.0328,-0.17286 0.0985,-0.24047 0.0657,-0.0676 0.14486,-0.1014 0.23758,-0.1014 z" />
    <path
       inkscape:connector-curvature="0"
       id="path4102"
       style="font-size:5.93357801px;font-style:normal;font-variant:normal;font-weight:normal;font-stretch:normal;line-height:125%;letter-spacing:0px;word-spacing:0px;fill:#223b80;fill-opacity:1;stroke:none;font-family:Jomolhari;-inkscape-font-specification:Jomolhari"
       d="m 276.9763,630.53159 c -0.0541,0.1043 -0.10334,0.19412 -0.14776,0.26944 -0.0444,0.0753 -0.0869,0.14293 -0.12748,0.20281 -0.0406,0.0599 -0.0821,0.11299 -0.12458,0.15935 -0.0425,0.0464 -0.0888,0.0888 -0.13907,0.12748 -0.23178,0.18542 -0.48867,0.27814 -0.77067,0.27814 -0.18156,0 -0.3496,-0.0357 -0.50412,-0.1072 -0.15452,-0.0715 -0.28683,-0.17287 -0.39693,-0.30421 -0.11009,-0.13135 -0.19605,-0.28587 -0.25785,-0.46357 -0.0618,-0.17769 -0.0927,-0.37471 -0.0927,-0.59104 0,-0.27427 0.0473,-0.52633 0.14197,-0.75618 0.0946,-0.22985 0.23081,-0.41817 0.40851,-0.56496 0.13521,-0.11203 0.2791,-0.19605 0.43169,-0.25206 0.15259,-0.056 0.30808,-0.084 0.46646,-0.084 0.13907,10e-6 0.27041,0.0184 0.39403,0.0551 0.12361,0.0367 0.23178,0.086 0.32449,0.14776 0.0927,0.0618 0.16611,0.13424 0.22019,0.2173 0.0541,0.083 0.0811,0.17094 0.0811,0.26365 -10e-6,0.0773 -0.03,0.14486 -0.0898,0.2028 -0.0599,0.058 -0.13231,0.0869 -0.21729,0.0869 -0.0773,0 -0.14294,-0.029 -0.19702,-0.0869 -0.0541,-0.0579 -0.0946,-0.1352 -0.12168,-0.23178 l -0.0406,-0.14486 c -0.0309,-0.12361 -0.0744,-0.20667 -0.13038,-0.24916 -0.056,-0.0425 -0.1439,-0.0637 -0.26365,-0.0637 -0.13521,0 -0.25786,0.028 -0.36795,0.084 -0.1101,0.056 -0.20378,0.13617 -0.28103,0.24047 -0.0773,0.1043 -0.13811,0.22792 -0.18253,0.37085 -0.0444,0.14293 -0.0666,0.30132 -0.0666,0.47515 0,0.18542 0.0251,0.35733 0.0753,0.51571 0.0502,0.15838 0.11975,0.29359 0.2086,0.40562 0.0888,0.11202 0.19605,0.19991 0.3216,0.26365 0.12554,0.0637 0.26365,0.0956 0.41431,0.0956 0.18928,0 0.35346,-0.0454 0.49253,-0.13618 0.13906,-0.0908 0.28779,-0.25206 0.44618,-0.48384 z" />
    <path
       inkscape:connector-curvature="0"
       id="path4104"
       style="font-size:5.93357801px;font-style:normal;font-variant:normal;font-weight:normal;font-stretch:normal;line-height:125%;letter-spacing:0px;word-spacing:0px;fill:#223b80;fill-opacity:1;stroke:none;font-family:Jomolhari;-inkscape-font-specification:Jomolhari"
       d="m 279.63018,630.80972 c 0,0.1468 0.0135,0.2482 0.0406,0.30422 0.027,0.056 0.0792,0.084 0.15645,0.084 0.0888,0 0.18542,-0.0406 0.28972,-0.12169 l 0,0.16804 c -0.11203,0.12362 -0.21053,0.20861 -0.29552,0.25496 -0.085,0.0464 -0.18349,0.0695 -0.29552,0.0695 -0.13521,0 -0.23468,-0.0377 -0.29841,-0.113 -0.0637,-0.0753 -0.10334,-0.20184 -0.11879,-0.37954 -0.20088,0.17384 -0.37665,0.29939 -0.5273,0.37665 -0.15066,0.0773 -0.29746,0.11589 -0.44039,0.11589 -0.2086,0 -0.37761,-0.0657 -0.50702,-0.19702 -0.12941,-0.13134 -0.19411,-0.30131 -0.19411,-0.50991 0,-0.10431 0.0203,-0.20957 0.0608,-0.31581 0.0406,-0.10623 0.0995,-0.19218 0.17673,-0.25785 0.0695,-0.0618 0.13424,-0.11492 0.19412,-0.15935 0.0599,-0.0444 0.1381,-0.0908 0.23468,-0.13907 0.0966,-0.0483 0.22212,-0.10333 0.37664,-0.16514 0.15452,-0.0618 0.35926,-0.14486 0.61422,-0.24917 l 0,-0.423 c 0,-0.18155 -0.0435,-0.31869 -0.13038,-0.41141 -0.0869,-0.0927 -0.2115,-0.13906 -0.37374,-0.13906 -0.13521,0 -0.2482,0.0319 -0.33898,0.0956 -0.0908,0.0637 -0.13617,0.14003 -0.13617,0.22888 0,0.0348 0.005,0.0792 0.0145,0.13327 0.01,0.0541 0.0145,0.0985 0.0145,0.13328 0,0.0773 -0.0299,0.14293 -0.0898,0.19701 -0.0599,0.0541 -0.12844,0.0811 -0.2057,0.0811 -0.0773,10e-6 -0.1439,-0.028 -0.19991,-0.084 -0.056,-0.056 -0.084,-0.12265 -0.084,-0.19991 0,-0.085 0.0241,-0.1719 0.0724,-0.26075 0.0483,-0.0888 0.11492,-0.16804 0.19991,-0.23758 0.0889,-0.0773 0.20764,-0.13713 0.35636,-0.17963 0.14873,-0.0425 0.31001,-0.0637 0.48384,-0.0637 0.20088,1e-5 0.36988,0.0338 0.50702,0.10141 0.13714,0.0676 0.2424,0.16128 0.3158,0.28103 0.0464,0.0773 0.0792,0.16708 0.0985,0.26945 0.0193,0.10237 0.029,0.24047 0.029,0.4143 z m -0.53309,-1.07198 c -0.20088,0.0734 -0.37182,0.1439 -0.51282,0.2115 -0.141,0.0676 -0.25496,0.13714 -0.34187,0.2086 -0.0869,0.0715 -0.14969,0.14776 -0.18832,0.22889 -0.0386,0.0811 -0.058,0.16997 -0.058,0.26654 l 0,0.029 c 0,0.0695 0.0116,0.13617 0.0348,0.19991 0.0232,0.0637 0.0551,0.11878 0.0956,0.16514 0.0406,0.0464 0.0879,0.0831 0.14196,0.1101 0.0541,0.027 0.1101,0.0406 0.16804,0.0406 0.0695,0 0.14776,-0.0145 0.23468,-0.0435 0.0869,-0.029 0.16901,-0.0647 0.24627,-0.1072 0.0773,-0.0425 0.12651,-0.0869 0.14776,-0.13327 0.0212,-0.0464 0.0319,-0.11976 0.0319,-0.2202 z" />
    <path
       inkscape:connector-curvature="0"
       id="path4106"
       style="font-size:5.93357801px;font-style:normal;font-variant:normal;font-weight:normal;font-stretch:normal;line-height:125%;letter-spacing:0px;word-spacing:0px;fill:#223b80;fill-opacity:1;stroke:none;font-family:Jomolhari;-inkscape-font-specification:Jomolhari"
       d="m 280.26178,627.27507 c 0.11589,-0.027 0.21923,-0.0512 0.31001,-0.0724 0.0908,-0.0212 0.1777,-0.0435 0.26075,-0.0666 0.0831,-0.0232 0.16321,-0.0464 0.24047,-0.0695 0.0773,-0.0232 0.15839,-0.0502 0.24337,-0.0811 l 0.029,0.0174 0,3.94606 c 0,0.0927 0.006,0.16708 0.0174,0.22309 0.0116,0.056 0.0348,0.10044 0.0695,0.13328 0.0348,0.0328 0.084,0.057 0.14776,0.0724 0.0637,0.0154 0.14776,0.027 0.25207,0.0348 l 0,0.0927 -1.55293,0 0,-0.0927 c 0.1043,-0.0116 0.18928,-0.0261 0.25496,-0.0435 0.0657,-0.0174 0.11782,-0.0444 0.15645,-0.0811 0.0386,-0.0367 0.0647,-0.084 0.0782,-0.14196 0.0135,-0.058 0.0203,-0.13135 0.0203,-0.2202 l 0,-3.15221 c 0,-0.15451 -0.0203,-0.25978 -0.0608,-0.3158 -0.0406,-0.056 -0.11299,-0.084 -0.21729,-0.084 -0.0309,0 -0.0647,9.7e-4 -0.10141,0.003 -0.0367,0.002 -0.0724,0.005 -0.1072,0.009 l -0.0406,0 z" />
    <path
       inkscape:connector-curvature="0"
       id="path4108"
       style="font-size:5.93357801px;font-style:normal;font-variant:normal;font-weight:normal;font-stretch:normal;line-height:125%;letter-spacing:0px;word-spacing:0px;fill:#223b80;fill-opacity:1;stroke:none;font-family:Jomolhari;-inkscape-font-specification:Jomolhari"
       d="m 286.82117,628.44556 -0.16225,0 c -0.027,-0.0966 -0.0531,-0.18155 -0.0782,-0.25495 -0.0251,-0.0734 -0.0541,-0.14003 -0.0869,-0.19991 -0.0328,-0.0599 -0.0686,-0.11396 -0.1072,-0.16225 -0.0386,-0.0483 -0.0831,-0.0995 -0.13327,-0.15356 -0.23178,-0.24336 -0.50219,-0.36504 -0.81123,-0.36505 -0.20474,10e-6 -0.36989,0.0541 -0.49543,0.16225 -0.12555,0.10817 -0.18833,0.25496 -0.18833,0.44038 0,0.18156 0.0753,0.35154 0.22599,0.50992 0.15066,0.15838 0.39789,0.33222 0.7417,0.5215 0.44038,0.23951 0.75811,0.47322 0.95319,0.70114 0.19508,0.22792 0.29262,0.47708 0.29263,0.74749 -1e-5,0.16997 -0.0348,0.32836 -0.1043,0.47515 -0.0695,0.14679 -0.16418,0.27427 -0.28393,0.38244 -0.11976,0.10816 -0.26269,0.19315 -0.4288,0.25496 -0.16611,0.0618 -0.34381,0.0927 -0.53309,0.0927 -0.13521,0 -0.26848,-0.0116 -0.39982,-0.0348 -0.13135,-0.0232 -0.25883,-0.0618 -0.38244,-0.11589 -0.0657,-0.0232 -0.12555,-0.0415 -0.17963,-0.0551 -0.0541,-0.0135 -0.0985,-0.0203 -0.13328,-0.0203 -0.0502,0 -0.0927,0.0213 -0.12747,0.0637 -0.0348,0.0425 -0.0541,0.0947 -0.058,0.15645 l -0.14486,0 -0.19702,-1.40227 0.15066,0 c 0.16611,0.40562 0.3554,0.7021 0.56786,0.88946 0.21247,0.18736 0.46936,0.28103 0.77067,0.28103 0.24337,0 0.43942,-0.0676 0.58815,-0.2028 0.14872,-0.13521 0.22308,-0.31291 0.22308,-0.5331 0,-0.085 -0.009,-0.16031 -0.0261,-0.22599 -0.0174,-0.0657 -0.0415,-0.12168 -0.0724,-0.16804 -0.0773,-0.12361 -0.19992,-0.25109 -0.36795,-0.38243 -0.16805,-0.13134 -0.36989,-0.26269 -0.60553,-0.39403 -0.18543,-0.0966 -0.34381,-0.19315 -0.47515,-0.28973 -0.13134,-0.0966 -0.23854,-0.19701 -0.3216,-0.30131 -0.0831,-0.1043 -0.14389,-0.21246 -0.18252,-0.32449 -0.0386,-0.11203 -0.058,-0.23371 -0.058,-0.36506 0,-0.36698 0.12748,-0.65284 0.38244,-0.85758 0.10816,-0.0888 0.22792,-0.15742 0.35926,-0.20571 0.13134,-0.0483 0.26075,-0.0724 0.38823,-0.0724 0.11589,0 0.23275,0.0126 0.35057,0.0377 0.11782,0.0251 0.23854,0.0609 0.36216,0.1072 0.0618,0.0271 0.11782,0.0464 0.16804,0.058 0.0502,0.0116 0.0927,0.0174 0.12748,0.0174 0.10816,0 0.17769,-0.0734 0.2086,-0.22019 l 0.13907,0 z" />
    <path
       inkscape:connector-curvature="0"
       id="path4110"
       style="font-size:5.93357801px;font-style:normal;font-variant:normal;font-weight:normal;font-stretch:normal;line-height:125%;letter-spacing:0px;word-spacing:0px;fill:#223b80;fill-opacity:1;stroke:none;font-family:Jomolhari;-inkscape-font-specification:Jomolhari"
       d="m 289.05785,628.46295 c 0.21246,0 0.40754,0.0367 0.58524,0.11009 0.1777,0.0734 0.33126,0.17674 0.46067,0.31001 0.12941,0.13328 0.23081,0.29069 0.30421,0.47225 0.0734,0.18157 0.11009,0.38244 0.1101,0.60263 -1e-5,0.23178 -0.0377,0.44521 -0.113,0.6403 -0.0753,0.19508 -0.17866,0.36505 -0.31,0.50991 -0.13135,0.14486 -0.28683,0.25786 -0.46646,0.33898 -0.17963,0.0811 -0.37375,0.12169 -0.58235,0.12169 -0.2086,0 -0.40175,-0.0386 -0.57945,-0.11589 -0.1777,-0.0773 -0.33029,-0.18543 -0.45777,-0.3245 -0.12748,-0.13906 -0.22791,-0.30324 -0.30131,-0.49253 -0.0734,-0.18929 -0.1101,-0.39596 -0.1101,-0.62001 0,-0.22792 0.0357,-0.43749 0.1072,-0.62871 0.0715,-0.19121 0.17094,-0.35539 0.29842,-0.49253 0.12748,-0.13713 0.28103,-0.24337 0.46066,-0.3187 0.17963,-0.0753 0.37761,-0.11299 0.59394,-0.11299 z m -0.0985,0.18542 c -0.23178,10e-6 -0.4172,0.0947 -0.55627,0.28393 -0.13907,0.18929 -0.2086,0.44039 -0.2086,0.75329 0,0.23564 0.0251,0.46453 0.0753,0.68665 0.0502,0.22212 0.12168,0.4201 0.21439,0.59394 0.0695,0.1352 0.16225,0.2395 0.27814,0.3129 0.11589,0.0734 0.24144,0.1101 0.37664,0.1101 0.24337,0 0.43362,-0.1072 0.57076,-0.3216 0.13714,-0.2144 0.2057,-0.50895 0.20571,-0.88366 -10e-6,-0.282 -0.0406,-0.54468 -0.12169,-0.78806 -0.0811,-0.24336 -0.19122,-0.42686 -0.33028,-0.55047 -0.0734,-0.0695 -0.15066,-0.11975 -0.23179,-0.15066 -0.0811,-0.0309 -0.1719,-0.0464 -0.27234,-0.0464 z" />
    <path
       inkscape:connector-curvature="0"
       id="path4112"
       style="font-size:5.93357801px;font-style:normal;font-variant:normal;font-weight:normal;font-stretch:normal;line-height:125%;letter-spacing:0px;word-spacing:0px;fill:#223b80;fill-opacity:1;stroke:none;font-family:Jomolhari;-inkscape-font-specification:Jomolhari"
       d="m 290.84256,627.27507 c 0.11589,-0.027 0.21922,-0.0512 0.31001,-0.0724 0.0908,-0.0212 0.17769,-0.0435 0.26075,-0.0666 0.0831,-0.0232 0.16321,-0.0464 0.24047,-0.0695 0.0773,-0.0232 0.15838,-0.0502 0.24337,-0.0811 l 0.029,0.0174 0,3.94606 c 0,0.0927 0.006,0.16708 0.0174,0.22309 0.0116,0.056 0.0348,0.10044 0.0695,0.13328 0.0348,0.0328 0.084,0.057 0.14776,0.0724 0.0637,0.0154 0.14776,0.027 0.25206,0.0348 l 0,0.0927 -1.55293,0 0,-0.0927 c 0.1043,-0.0116 0.18929,-0.0261 0.25496,-0.0435 0.0657,-0.0174 0.11782,-0.0444 0.15645,-0.0811 0.0386,-0.0367 0.0647,-0.084 0.0782,-0.14196 0.0135,-0.058 0.0203,-0.13135 0.0203,-0.2202 l 0,-3.15221 c 0,-0.15451 -0.0203,-0.25978 -0.0608,-0.3158 -0.0406,-0.056 -0.113,-0.084 -0.2173,-0.084 -0.0309,0 -0.0647,9.7e-4 -0.1014,0.003 -0.0367,0.002 -0.0724,0.005 -0.1072,0.009 l -0.0406,0 z" />
    <path
       inkscape:connector-curvature="0"
       id="path4114"
       style="font-size:5.93357801px;font-style:normal;font-variant:normal;font-weight:normal;font-stretch:normal;line-height:125%;letter-spacing:0px;word-spacing:0px;fill:#223b80;fill-opacity:1;stroke:none;font-family:Jomolhari;-inkscape-font-specification:Jomolhari"
       d="m 295.73313,631.27329 c -0.16998,0.0425 -0.32257,0.085 -0.45777,0.12747 -0.13521,0.0425 -0.2878,0.0966 -0.45777,0.16225 l -0.0174,-0.0116 0,-0.55048 -0.28972,0.28393 c -0.0889,0.0927 -0.19316,0.16322 -0.31291,0.2115 -0.11975,0.0483 -0.24144,0.0724 -0.36505,0.0724 -0.24337,0 -0.43749,-0.0773 -0.58235,-0.23178 -0.14486,-0.15452 -0.2173,-0.36313 -0.21729,-0.62581 l 0,-1.65723 c -10e-6,-0.15452 -0.028,-0.26075 -0.084,-0.3187 -0.056,-0.0579 -0.16514,-0.0927 -0.32738,-0.1043 l 0,-0.11589 0.96188,0 0,2.17294 c 0,0.13907 0.0464,0.25786 0.13907,0.35636 0.0927,0.0985 0.20474,0.14776 0.33608,0.14776 0.10044,0 0.20184,-0.0203 0.30422,-0.0608 0.10236,-0.0406 0.19797,-0.1014 0.28682,-0.18253 0.0425,-0.0309 0.0734,-0.0724 0.0927,-0.12458 0.0193,-0.0521 0.029,-0.12265 0.029,-0.2115 l 0,-1.56452 c 0,-0.0811 -0.007,-0.14775 -0.0203,-0.19991 -0.0135,-0.0521 -0.0386,-0.0937 -0.0753,-0.12458 -0.0367,-0.0309 -0.0879,-0.0531 -0.15356,-0.0666 -0.0657,-0.0135 -0.14872,-0.0222 -0.24916,-0.0261 l 0,-0.11589 1.04881,0 0,2.28304 c -1e-5,0.15452 0.0251,0.25592 0.0753,0.30421 0.0502,0.0483 0.15065,0.0724 0.30131,0.0724 l 0.0348,0 z" />
    <path
       inkscape:connector-curvature="0"
       id="path4116"
       style="font-size:5.93357801px;font-style:normal;font-variant:normal;font-weight:normal;font-stretch:normal;line-height:125%;letter-spacing:0px;word-spacing:0px;fill:#223b80;fill-opacity:1;stroke:none;font-family:Jomolhari;-inkscape-font-specification:Jomolhari"
       d="m 297.57578,628.73529 -0.67216,0 0,1.9006 c -10e-6,0.21247 0.027,0.36409 0.0811,0.45487 0.0541,0.0908 0.141,0.13617 0.26075,0.13617 0.0773,0 0.14486,-0.0164 0.20281,-0.0493 0.0579,-0.0328 0.12555,-0.0937 0.20281,-0.18253 l 0.0811,0.0811 c -0.2086,0.32836 -0.47515,0.49254 -0.79964,0.49254 -0.39017,0 -0.58525,-0.28007 -0.58525,-0.84021 l 0,-1.99331 -0.34767,0 c -0.0154,-0.004 -0.0232,-0.0174 -0.0232,-0.0406 0,-0.0386 0.0367,-0.0811 0.1101,-0.12748 0.17383,-0.10044 0.38823,-0.33608 0.64319,-0.70693 0.0193,-0.0309 0.0415,-0.0608 0.0666,-0.0898 0.0251,-0.029 0.0473,-0.0608 0.0666,-0.0956 0.0154,10e-6 0.0261,0.006 0.0319,0.0174 0.006,0.0116 0.009,0.0348 0.009,0.0695 l 0,0.76488 0.67216,0 z" />
    <path
       inkscape:connector-curvature="0"
       id="path4118"
       style="font-size:5.93357801px;font-style:normal;font-variant:normal;font-weight:normal;font-stretch:normal;line-height:125%;letter-spacing:0px;word-spacing:0px;fill:#223b80;fill-opacity:1;stroke:none;font-family:Jomolhari;-inkscape-font-specification:Jomolhari"
       d="m 298.91431,628.48033 0,2.35257 c 0,0.11976 0.005,0.21537 0.0145,0.28683 0.01,0.0715 0.0319,0.12748 0.0666,0.16804 0.0348,0.0406 0.084,0.0686 0.14776,0.084 0.0637,0.0154 0.15163,0.029 0.26365,0.0406 l 0,0.0927 -1.57031,0 0,-0.0927 c 0.11589,-0.008 0.20764,-0.0203 0.27524,-0.0377 0.0676,-0.0174 0.11975,-0.0464 0.15645,-0.0869 0.0367,-0.0406 0.0609,-0.0966 0.0724,-0.16804 0.0116,-0.0715 0.0174,-0.16707 0.0174,-0.28683 l 0,-1.53554 c 0,-0.14679 -0.0164,-0.25013 -0.0493,-0.31001 -0.0328,-0.0599 -0.0879,-0.0898 -0.16514,-0.0898 -0.0309,0 -0.0666,0.002 -0.1072,0.006 -0.0406,0.004 -0.0821,0.01 -0.12458,0.0174 l -0.0464,0.006 0,-0.0985 1.01984,-0.36505 z m -0.33029,-1.49498 c 0.0927,0 0.17191,0.0338 0.23758,0.1014 0.0657,0.0676 0.0985,0.14777 0.0985,0.24047 -10e-6,0.0966 -0.0319,0.17674 -0.0956,0.24048 -0.0637,0.0637 -0.14583,0.0956 -0.24627,0.0956 -0.0966,0 -0.17577,-0.0319 -0.23758,-0.0956 -0.0618,-0.0637 -0.0927,-0.1439 -0.0927,-0.24048 0,-0.0927 0.0328,-0.17286 0.0985,-0.24047 0.0657,-0.0676 0.14486,-0.1014 0.23757,-0.1014 z" />
    <path
       inkscape:connector-curvature="0"
       id="path4120"
       style="font-size:5.93357801px;font-style:normal;font-variant:normal;font-weight:normal;font-stretch:normal;line-height:125%;letter-spacing:0px;word-spacing:0px;fill:#223b80;fill-opacity:1;stroke:none;font-family:Jomolhari;-inkscape-font-specification:Jomolhari"
       d="m 301.22632,628.46295 c 0.21247,0 0.40755,0.0367 0.58525,0.11009 0.17769,0.0734 0.33125,0.17674 0.46066,0.31001 0.12941,0.13328 0.23081,0.29069 0.30421,0.47225 0.0734,0.18157 0.11009,0.38244 0.1101,0.60263 -10e-6,0.23178 -0.0377,0.44521 -0.11299,0.6403 -0.0753,0.19508 -0.17867,0.36505 -0.31001,0.50991 -0.13135,0.14486 -0.28683,0.25786 -0.46646,0.33898 -0.17963,0.0811 -0.37375,0.12169 -0.58235,0.12169 -0.2086,0 -0.40175,-0.0386 -0.57945,-0.11589 -0.1777,-0.0773 -0.33029,-0.18543 -0.45776,-0.3245 -0.12748,-0.13906 -0.22792,-0.30324 -0.30132,-0.49253 -0.0734,-0.18929 -0.1101,-0.39596 -0.11009,-0.62001 -1e-5,-0.22792 0.0357,-0.43749 0.10719,-0.62871 0.0715,-0.19121 0.17094,-0.35539 0.29842,-0.49253 0.12748,-0.13713 0.28103,-0.24337 0.46066,-0.3187 0.17963,-0.0753 0.37761,-0.11299 0.59394,-0.11299 z m -0.0985,0.18542 c -0.23178,10e-6 -0.4172,0.0947 -0.55627,0.28393 -0.13907,0.18929 -0.2086,0.44039 -0.2086,0.75329 0,0.23564 0.0251,0.46453 0.0753,0.68665 0.0502,0.22212 0.12168,0.4201 0.2144,0.59394 0.0695,0.1352 0.16224,0.2395 0.27813,0.3129 0.11589,0.0734 0.24144,0.1101 0.37664,0.1101 0.24337,0 0.43363,-0.1072 0.57076,-0.3216 0.13714,-0.2144 0.20571,-0.50895 0.20571,-0.88366 0,-0.282 -0.0406,-0.54468 -0.12169,-0.78806 -0.0811,-0.24336 -0.19122,-0.42686 -0.33028,-0.55047 -0.0734,-0.0695 -0.15066,-0.11975 -0.23178,-0.15066 -0.0811,-0.0309 -0.17191,-0.0464 -0.27235,-0.0464 z" />
    <path
       inkscape:connector-curvature="0"
       id="path4122"
       style="font-size:5.93357801px;font-style:normal;font-variant:normal;font-weight:normal;font-stretch:normal;line-height:125%;letter-spacing:0px;word-spacing:0px;fill:#223b80;fill-opacity:1;stroke:none;font-family:Jomolhari;-inkscape-font-specification:Jomolhari"
       d="m 302.99364,628.75847 c 0.18157,-0.0502 0.33898,-0.0966 0.47226,-0.13907 0.13327,-0.0425 0.2791,-0.0946 0.43748,-0.15645 l 0.0521,0.0116 0,0.5273 c 0.11203,-0.1043 0.21054,-0.19122 0.29552,-0.26076 0.085,-0.0695 0.16321,-0.12457 0.23468,-0.16514 0.0715,-0.0406 0.141,-0.0695 0.2086,-0.0869 0.0676,-0.0174 0.14004,-0.0261 0.2173,-0.0261 0.24336,0 0.43458,0.0869 0.57365,0.26075 0.13907,0.17384 0.2086,0.41721 0.20861,0.73011 l 0,1.51816 c -1e-5,0.15838 0.027,0.26655 0.0811,0.32449 0.0541,0.058 0.16031,0.0966 0.3187,0.11589 l 0,0.0927 -1.3733,0 0,-0.0927 c 0.0811,-0.008 0.14872,-0.0212 0.20281,-0.0406 0.0541,-0.0193 0.0975,-0.0502 0.13037,-0.0927 0.0328,-0.0425 0.055,-0.0985 0.0666,-0.16804 0.0116,-0.0695 0.0174,-0.15645 0.0174,-0.26075 l 0,-1.38489 c 0,-0.42493 -0.16031,-0.63739 -0.48094,-0.6374 -0.0541,10e-6 -0.10624,0.006 -0.15645,0.0174 -0.0502,0.0116 -0.10141,0.0309 -0.15356,0.0579 -0.0521,0.027 -0.10816,0.0657 -0.16804,0.11589 -0.0599,0.0502 -0.13038,0.11203 -0.2115,0.18543 l 0,1.86003 c 0,0.11976 0.0309,0.20378 0.0927,0.25206 0.0618,0.0483 0.1777,0.0802 0.34767,0.0956 l 0,0.0927 -1.40227,0 0,-0.0927 c 0.085,-0.008 0.15356,-0.0203 0.20571,-0.0377 0.0521,-0.0174 0.0937,-0.0454 0.12458,-0.084 0.0309,-0.0386 0.0522,-0.0879 0.0637,-0.14776 0.0116,-0.0599 0.0174,-0.13617 0.0174,-0.22888 l 0,-1.64564 c 0,-0.16225 -0.0174,-0.27331 -0.0521,-0.33319 -0.0348,-0.0599 -0.0985,-0.0898 -0.19122,-0.0898 -0.0695,0 -0.12941,0.01 -0.17963,0.029 z" />
    <path
       inkscape:connector-curvature="0"
       id="path4124"
       style="font-size:5.93357801px;font-style:normal;font-variant:normal;font-weight:normal;font-stretch:normal;line-height:125%;letter-spacing:0px;word-spacing:0px;fill:#223b80;fill-opacity:1;stroke:none;font-family:Jomolhari;-inkscape-font-specification:Jomolhari"
       d="m 308.17973,629.43063 c -0.0734,-0.29745 -0.16418,-0.50798 -0.27234,-0.6316 -0.10817,-0.12361 -0.25689,-0.18542 -0.44618,-0.18542 -0.15452,0 -0.27813,0.0415 -0.37085,0.12458 -0.0927,0.083 -0.13906,0.19218 -0.13906,0.32739 0,0.18929 0.0946,0.33994 0.28393,0.45197 l 0.71272,0.423 c 0.20088,0.11975 0.34381,0.23854 0.4288,0.35636 0.085,0.11782 0.12747,0.25979 0.12747,0.4259 0,0.11589 -0.0251,0.22598 -0.0753,0.33028 -0.0502,0.10431 -0.11686,0.19412 -0.19991,0.26945 -0.0831,0.0753 -0.1806,0.1352 -0.29263,0.17963 -0.11203,0.0444 -0.23178,0.0666 -0.35926,0.0666 -0.0695,0 -0.14486,-0.005 -0.22598,-0.0145 -0.0811,-0.01 -0.16998,-0.0261 -0.26655,-0.0492 -0.0773,-0.0193 -0.13714,-0.0328 -0.17963,-0.0406 -0.0425,-0.008 -0.0831,-0.0116 -0.12169,-0.0116 -0.0386,0 -0.0676,0.006 -0.0869,0.0174 -0.0193,0.0116 -0.0406,0.0328 -0.0637,0.0637 l -0.0869,0 0,-1.03142 0.1043,0 c 0.0386,0.16997 0.0831,0.3129 0.13327,0.42879 0.0502,0.11589 0.10817,0.21053 0.17384,0.28393 0.0657,0.0734 0.14293,0.12651 0.23178,0.15935 0.0888,0.0328 0.18929,0.0493 0.30132,0.0493 0.17383,0 0.31,-0.0425 0.40851,-0.12748 0.0985,-0.085 0.14776,-0.20087 0.14776,-0.34767 0,-0.19701 -0.11589,-0.36119 -0.34767,-0.49253 l -0.38244,-0.22019 c -0.14293,-0.0811 -0.26365,-0.15838 -0.36216,-0.23178 -0.0985,-0.0734 -0.17866,-0.14776 -0.24047,-0.22309 -0.0618,-0.0753 -0.10623,-0.15355 -0.13327,-0.23468 -0.027,-0.0811 -0.0406,-0.16804 -0.0406,-0.26075 0,-0.11975 0.0222,-0.22985 0.0666,-0.33029 0.0444,-0.10043 0.10623,-0.18735 0.18543,-0.26075 0.0792,-0.0734 0.1748,-0.12941 0.28682,-0.16804 0.11203,-0.0386 0.23565,-0.0579 0.37085,-0.058 0.15452,10e-6 0.30325,0.0271 0.44618,0.0811 0.0811,0.0348 0.14293,0.0521 0.18543,0.0521 0.0154,0 0.027,-0.004 0.0348,-0.0116 0.008,-0.008 0.027,-0.0251 0.058,-0.0521 l 0.006,-0.0116 0.0811,0 0.0232,0.90394 z" />
    <path
       inkscape:connector-curvature="0"
       id="path4126"
       style="font-size:5.93357801px;font-style:normal;font-variant:normal;font-weight:normal;font-stretch:normal;line-height:125%;letter-spacing:0px;word-spacing:0px;fill:#223b80;fill-opacity:1;stroke:none;font-family:Jomolhari;-inkscape-font-specification:Jomolhari"
       d="m 311.28559,627.84873 c 0,-0.12361 -0.007,-0.22212 -0.0203,-0.29552 -0.0135,-0.0734 -0.0435,-0.13134 -0.0898,-0.17384 -0.0464,-0.0425 -0.11203,-0.0715 -0.19702,-0.0869 -0.085,-0.0154 -0.19701,-0.027 -0.33608,-0.0348 l 0,-0.13327 1.96434,0 0,0.13327 c -0.13907,0.004 -0.2511,0.0145 -0.33608,0.0319 -0.085,0.0174 -0.15066,0.0473 -0.19701,0.0898 -0.0464,0.0425 -0.0773,0.10141 -0.0927,0.17674 -0.0154,0.0753 -0.0232,0.17287 -0.0232,0.29262 l 0,2.94361 c -10e-6,0.11976 0.009,0.2173 0.0261,0.29262 0.0174,0.0753 0.0492,0.13424 0.0956,0.17674 0.0464,0.0425 0.11203,0.0724 0.19701,0.0898 0.085,0.0174 0.19508,0.028 0.33029,0.0319 l 0,0.12169 -1.96434,0 0,-0.12169 c 0.13907,-0.004 0.2511,-0.0145 0.33608,-0.0319 0.085,-0.0174 0.14969,-0.0473 0.19412,-0.0898 0.0444,-0.0425 0.0744,-0.10044 0.0898,-0.17384 0.0155,-0.0734 0.0232,-0.1719 0.0232,-0.29552 z" />
    <path
       inkscape:connector-curvature="0"
       id="path4128"
       style="font-size:5.93357801px;font-style:normal;font-variant:normal;font-weight:normal;font-stretch:normal;line-height:125%;letter-spacing:0px;word-spacing:0px;fill:#223b80;fill-opacity:1;stroke:none;font-family:Jomolhari;-inkscape-font-specification:Jomolhari"
       d="m 312.84431,628.75847 c 0.18157,-0.0502 0.33898,-0.0966 0.47226,-0.13907 0.13327,-0.0425 0.2791,-0.0946 0.43748,-0.15645 l 0.0521,0.0116 0,0.5273 c 0.11203,-0.1043 0.21054,-0.19122 0.29552,-0.26076 0.085,-0.0695 0.16321,-0.12457 0.23468,-0.16514 0.0715,-0.0406 0.141,-0.0695 0.2086,-0.0869 0.0676,-0.0174 0.14003,-0.0261 0.2173,-0.0261 0.24336,0 0.43458,0.0869 0.57365,0.26075 0.13907,0.17384 0.2086,0.41721 0.20861,0.73011 l 0,1.51816 c -10e-6,0.15838 0.027,0.26655 0.0811,0.32449 0.0541,0.058 0.16031,0.0966 0.3187,0.11589 l 0,0.0927 -1.3733,0 0,-0.0927 c 0.0811,-0.008 0.14872,-0.0212 0.20281,-0.0406 0.0541,-0.0193 0.0975,-0.0502 0.13037,-0.0927 0.0328,-0.0425 0.055,-0.0985 0.0666,-0.16804 0.0116,-0.0695 0.0174,-0.15645 0.0174,-0.26075 l 0,-1.38489 c 0,-0.42493 -0.16031,-0.63739 -0.48094,-0.6374 -0.0541,10e-6 -0.10624,0.006 -0.15645,0.0174 -0.0502,0.0116 -0.10141,0.0309 -0.15356,0.0579 -0.0522,0.027 -0.10816,0.0657 -0.16804,0.11589 -0.0599,0.0502 -0.13038,0.11203 -0.2115,0.18543 l 0,1.86003 c 0,0.11976 0.0309,0.20378 0.0927,0.25206 0.0618,0.0483 0.1777,0.0802 0.34767,0.0956 l 0,0.0927 -1.40227,0 0,-0.0927 c 0.085,-0.008 0.15356,-0.0203 0.20571,-0.0377 0.0522,-0.0174 0.0937,-0.0454 0.12458,-0.084 0.0309,-0.0386 0.0521,-0.0879 0.0637,-0.14776 0.0116,-0.0599 0.0174,-0.13617 0.0174,-0.22888 l 0,-1.64564 c 0,-0.16225 -0.0174,-0.27331 -0.0521,-0.33319 -0.0348,-0.0599 -0.0985,-0.0898 -0.19122,-0.0898 -0.0695,0 -0.12941,0.01 -0.17963,0.029 z" />
    <path
       inkscape:connector-curvature="0"
       id="path4130"
       style="font-size:5.93357801px;font-style:normal;font-variant:normal;font-weight:normal;font-stretch:normal;line-height:125%;letter-spacing:0px;word-spacing:0px;fill:#223b80;fill-opacity:1;stroke:none;font-family:Jomolhari;-inkscape-font-specification:Jomolhari"
       d="m 318.77789,630.53159 c -0.0541,0.1043 -0.10333,0.19412 -0.14776,0.26944 -0.0444,0.0753 -0.0869,0.14293 -0.12748,0.20281 -0.0406,0.0599 -0.0821,0.11299 -0.12458,0.15935 -0.0425,0.0464 -0.0888,0.0888 -0.13907,0.12748 -0.23178,0.18542 -0.48867,0.27814 -0.77067,0.27814 -0.18156,0 -0.3496,-0.0357 -0.50412,-0.1072 -0.15452,-0.0715 -0.28683,-0.17287 -0.39692,-0.30421 -0.1101,-0.13135 -0.19605,-0.28587 -0.25786,-0.46357 -0.0618,-0.17769 -0.0927,-0.37471 -0.0927,-0.59104 0,-0.27427 0.0473,-0.52633 0.14197,-0.75618 0.0946,-0.22985 0.23081,-0.41817 0.40851,-0.56496 0.1352,-0.11203 0.2791,-0.19605 0.43169,-0.25206 0.15259,-0.056 0.30807,-0.084 0.46646,-0.084 0.13906,10e-6 0.27041,0.0184 0.39402,0.0551 0.12362,0.0367 0.23178,0.086 0.3245,0.14776 0.0927,0.0618 0.1661,0.13424 0.22019,0.2173 0.0541,0.083 0.0811,0.17094 0.0811,0.26365 0,0.0773 -0.0299,0.14486 -0.0898,0.2028 -0.0599,0.058 -0.13231,0.0869 -0.2173,0.0869 -0.0773,0 -0.14293,-0.029 -0.19701,-0.0869 -0.0541,-0.0579 -0.0947,-0.1352 -0.12169,-0.23178 l -0.0406,-0.14486 c -0.0309,-0.12361 -0.0744,-0.20667 -0.13037,-0.24916 -0.056,-0.0425 -0.1439,-0.0637 -0.26365,-0.0637 -0.13521,0 -0.25786,0.028 -0.36796,0.084 -0.11009,0.056 -0.20377,0.13617 -0.28103,0.24047 -0.0773,0.1043 -0.1381,0.22792 -0.18253,0.37085 -0.0444,0.14293 -0.0666,0.30132 -0.0666,0.47515 0,0.18542 0.0251,0.35733 0.0753,0.51571 0.0502,0.15838 0.11975,0.29359 0.2086,0.40562 0.0889,0.11202 0.19604,0.19991 0.32159,0.26365 0.12555,0.0637 0.26365,0.0956 0.41431,0.0956 0.18929,0 0.35346,-0.0454 0.49253,-0.13618 0.13907,-0.0908 0.2878,-0.25206 0.44618,-0.48384 z" />
    <path
       inkscape:connector-curvature="0"
       id="path4132"
       style="font-size:5.93357801px;font-style:normal;font-variant:normal;font-weight:normal;font-stretch:normal;line-height:125%;letter-spacing:0px;word-spacing:0px;fill:#223b80;fill-opacity:1;stroke:none;font-family:Jomolhari;-inkscape-font-specification:Jomolhari"
       d="m 319.83249,630.85029 c 0.0927,0 0.17674,0.0367 0.25207,0.11009 0.0753,0.0734 0.11299,0.16032 0.11299,0.26075 0,0.0966 -0.0377,0.1806 -0.11299,0.25207 -0.0753,0.0715 -0.16322,0.10719 -0.26365,0.10719 -0.10044,0 -0.1864,-0.0357 -0.25786,-0.10719 -0.0715,-0.0715 -0.1072,-0.15742 -0.1072,-0.25786 0,-0.1043 0.0367,-0.19122 0.1101,-0.26075 0.0734,-0.0695 0.16224,-0.1043 0.26654,-0.1043 z" />
    <path
       inkscape:connector-curvature="0"
       id="path3199"
       d="m 245.18275,622.62795 -14.50704,-25.12645 -7.16563,-1.6e-4 c -4.70728,8.16018 -9.43015,16.31111 -14.14461,24.4672 l 1.48847,2.53999 13.64295,-23.63027 0.016,-0.0277 0.74373,-1.28817 c 0,0 0.007,-0.007 0.0218,-0.006 l 3.81887,0.007 0.36499,0.008 0.18106,0.32616 11.83952,20.50214 1.11036,1.91538 0.16721,0.31816 1.20888,2.06461 1.21341,-2.0697 z"
       style="fill:#808080;fill-opacity:1;stroke:none" />
    <path
       inkscape:connector-curvature="0"
       id="path3201"
       d="m 243.23147,626.00766 -1.17904,-2.08432 -0.74024,-1.27691 -0.53361,-0.89908 -0.0314,-0.0735 -12.01473,-20.80645 -2.70789,-0.012 13.41053,23.21906 0.4468,0.79353 0.065,0.11139 0.73438,1.25508 -1.66552,2.91676 -0.18979,0.29673 -0.35914,0.0143 -24.76426,-0.003 -1.09712,0.013 -2.76543,-0.008 1.17318,2.06246 28.99768,0.0279 3.22066,-5.54636 z"
       style="fill:#808080;fill-opacity:1;stroke:none" />
    <path
       inkscape:connector-curvature="0"
       id="path3203"
       d="m 239.47287,625.83222 -0.12895,-5.7e-4 -27.68048,-0.006 -0.0576,0.004 -1.48182,-0.0245 -0.0219,0.006 -2.00981,-3.52431 -0.19705,-0.29846 0.19193,-0.33243 13.93298,-24.16462 -2.36474,0.001 -14.13876,24.48905 3.56111,6.21139 c 9.95086,-0.0165 29.01369,1.7e-4 29.01369,1.7e-4 l 1.38134,-2.36058 z"
       style="fill:#808080;fill-opacity:1;stroke:none" />
    <path
       id="path3205"
       d="m 237.58899,623.43331 -11.66217,-20.23354 -0.008,12.42475 c 0.31014,0.1248 0.59071,0.3362 0.77082,0.64818 0.15791,0.27352 0.2165,0.57852 0.19847,0.87179 l -0.008,0.0139 10.7086,6.27495 z"
       style="fill:#223b80;fill-opacity:1;stroke:none"
       inkscape:connector-curvature="0" />
    <path
       id="path3207"
       d="m 236.93537,624.53341 -10.65904,-6.26482 c -0.0544,0.042 -0.1041,0.091 -0.16522,0.12623 -0.55097,0.31811 -1.2109,0.24689 -1.69173,-0.10871 l -10.81599,6.25847 23.33198,-0.0112 z"
       style="fill:#223b80;fill-opacity:1;stroke:none"
       inkscape:connector-curvature="0" />
    <path
       id="path3209"
       d="m 223.79151,617.16642 c -0.0413,-0.57348 0.23693,-1.15189 0.7683,-1.45868 0.0269,-0.0155 0.0542,-0.0315 0.0815,-0.0453 l 0.004,-12.4823 -11.68367,20.2367 10.82984,-6.25046 z"
       style="fill:#223b80;fill-opacity:1;stroke:none"
       inkscape:connector-curvature="0" />
  </g>
</svg>
